GRF
version=1
nRows=16
nColumns=28
inDegrees=no
endheader
time	plate1_ground_force_vx	plate1_ground_force_vy	plate1_ground_force_vz	plate1_ground_force_px	plate1_ground_force_py	plate1_ground_force_pz	plate1_ground_torque_x	plate1_ground_torque_y	plate1_ground_torque_z	plate2_ground_force_vx	plate2_ground_force_vy	plate2_ground_force_vz	plate2_ground_force_px	plate2_ground_force_py	plate2_ground_force_pz	plate2_ground_torque_x	plate2_ground_torque_y	plate2_ground_torque_z	plate3_ground_force_vx	plate3_ground_force_vy	plate3_ground_force_vz	plate3_ground_force_px	plate3_ground_force_py	plate3_ground_force_pz	plate3_ground_torque_x	plate3_ground_torque_y	plate3_ground_torque_z
      1.67000000	     23.82461219	     64.51694779	      0.24340454	      0.40467434	      0.00000000	      0.08658110	      0.00000000	      0.37260231	     -0.00000000	    -91.61456030	    510.45567878	    -10.25437358	      0.98235860	      0.00000000	      0.19025107	      0.00000000	      0.32866735	      0.00000000	      0.00000000	      0.00000000	      0.00000000	      0.00000000	      0.00000000	      0.00000000	      0.00000000	      0.00000000	      0.00000000
      1.68000000	      0.00000000	      0.00000000	      0.00000000	      0.40456075	      0.00000000	      0.08604193	      0.00000000	      0.00000000	      0.00000000	    -90.11748887	    529.24093220	    -12.68228998	      0.98422430	      0.00000000	      0.19082825	      0.00000000	      0.31491136	      0.00000000	      0.00000000	      0.00000000	      0.00000000	      0.00000000	      0.00000000	      0.00000000	      0.00000000	      0.00000000	      0.00000000
      1.69000000	      0.00000000	      0.00000000	      0.00000000	      0.40456075	      0.00000000	      0.08604193	      0.00000000	      0.00000000	      0.00000000	    -87.56610048	    544.94720604	    -14.69653583	      0.98583276	      0.00000000	      0.19127368	      0.00000000	      0.30418963	      0.00000000	      0.00000000	      0.00000000	      0.00000000	      0.00000000	      0.00000000	      0.00000000	      0.00000000	      0.00000000	      0.00000000
      1.70000000	      0.00000000	      0.00000000	      0.00000000	      0.40456075	      0.00000000	      0.08604193	      0.00000000	      0.00000000	      0.00000000	    -84.25352148	    557.81330295	    -16.42696215	      0.98731324	      0.00000000	      0.19164714	      0.00000000	      0.30277873	      0.00000000	      0.00000000	      0.00000000	      0.00000000	      0.00000000	      0.00000000	      0.00000000	      0.00000000	      0.00000000	      0.00000000
      1.71000000	      0.00000000	      0.00000000	      0.00000000	      0.00000000	      0.00000000	      0.00000000	      0.00000000	      0.00000000	      0.00000000	    -80.37782262	    568.06037558	    -17.95794938	      0.98877132	      0.00000000	      0.19199419	      0.00000000	      0.31261745	      0.00000000	      0.00000000	      0.00000000	      0.00000000	      0.00000000	      0.00000000	      0.00000000	      0.00000000	      0.00000000	      0.00000000
      1.72000000	      0.00000000	      0.00000000	      0.00000000	      0.00000000	      0.00000000	      0.00000000	      0.00000000	      0.00000000	      0.00000000	    -76.05433506	    575.86010097	    -19.30834274	      0.99029793	      0.00000000	      0.19235022	      0.00000000	      0.33221529	     -0.00000000	      0.00000000	      0.00000000	      0.00000000	      0.00000000	      0.00000000	      0.00000000	      0.00000000	      0.00000000	      0.00000000
      1.73000000	      0.00000000	      0.00000000	      0.00000000	      0.00000000	      0.00000000	      0.00000000	      0.00000000	      0.00000000	      0.00000000	    -71.35135715	    581.31915271	    -20.43669433	      0.99197906	      0.00000000	      0.19274716	      0.00000000	      0.35851218	     -0.00000000	      0.00000000	      0.00000000	      0.00000000	      0.00000000	      0.00000000	      0.00000000	      0.00000000	      0.00000000	      0.00000000
      1.74000000	      0.00000000	      0.00000000	      0.00000000	      0.00000000	      0.00000000	      0.00000000	      0.00000000	      0.00000000	      0.00000000	    -66.33405272	    584.48234263	    -21.26606519	      0.99390139	      0.00000000	      0.19321886	      0.00000000	      0.38871186	     -0.00000000	      0.00000000	      0.00000000	      0.00000000	      0.00000000	      0.00000000	      0.00000000	      0.00000000	      0.00000000	      0.00000000
      1.75000000	      0.00000000	      0.00000000	      0.00000000	      0.00000000	      0.00000000	      0.00000000	      0.00000000	      0.00000000	      0.00000000	    -61.10277367	    585.35852954	    -21.71889599	      0.99615236	      0.00000000	      0.19380184	      0.00000000	      0.42142128	     -0.00000000	      0.00000000	      0.00000000	      0.00000000	      0.00000000	      0.00000000	      0.00000000	      0.00000000	      0.00000000	      0.00000000
      1.76000000	      0.00000000	      0.00000000	      0.00000000	      0.00000000	      0.00000000	      0.00000000	      0.00000000	      0.00000000	      0.00000000	    -55.81502043	    583.96868338	    -21.75000057	      0.99881590	      0.00000000	      0.19453118	      0.00000000	      0.45693090	     -0.00000000	      0.00000000	      0.00000000	      0.00000000	      0.00000000	      0.00000000	      0.00000000	      0.00000000	      0.00000000	      0.00000000
      1.77000000	      0.00000000	      0.00000000	      0.00000000	      0.00000000	      0.00000000	      0.00000000	      0.00000000	      0.00000000	      0.00000000	    -50.68396175	    580.40389799	    -21.36677217	      1.00196539	      0.00000000	      0.19543372	     -0.00000000	      0.49687413	     -0.00000000	      0.00000000	      0.00000000	      0.00000000	      0.00000000	      0.00000000	      0.00000000	      0.00000000	      0.00000000	      0.00000000
      1.78000000	      0.00000000	      0.00000000	      0.00000000	      0.00000000	      0.00000000	      0.00000000	      0.00000000	      0.00000000	      0.00000000	    -45.95204658	    574.87090771	    -20.63095320	      1.00565475	      0.00000000	      0.19652220	     -0.00000000	      0.54361888	     -0.00000000	      0.00000000	      0.00000000	      0.00000000	      0.00000000	      0.00000000	      0.00000000	      0.00000000	      0.00000000	      0.00000000
      1.79000000	      0.00000000	      0.00000000	      0.00000000	      0.00000000	      0.00000000	      0.00000000	      0.00000000	      0.00000000	      0.00000000	    -41.84608373	    567.70387076	    -19.64366146	      1.00990858	      0.00000000	      0.19779295	     -0.00000000	      0.59960177	      0.00000000	      0.00000000	      0.00000000	      0.00000000	      0.00000000	      0.00000000	      0.00000000	      0.00000000	      0.00000000	      0.00000000
      1.80000000	      0.00000000	      0.00000000	      0.00000000	      0.00000000	      0.00000000	      0.00000000	      0.00000000	      0.00000000	      0.00000000	    -38.52780296	    559.33607660	    -18.52118766	      1.01471381	      0.00000000	      0.19922783	     -0.00000000	      0.66664192	      0.00000000	      0.00000000	      0.00000000	      0.00000000	      0.00000000	      0.00000000	      0.00000000	      0.00000000	      0.00000000	      0.00000000
      1.81000000	      0.00000000	      0.00000000	      0.00000000	      0.00000000	      0.00000000	      0.00000000	      0.00000000	      0.00000000	      0.00000000	    -36.05701013	    550.24462220	    -17.37090302	      1.02001641	      0.00000000	      0.20079855	     -0.00000000	      0.74526592	      0.00000000	      0.00000000	      0.00000000	      0.00000000	      0.00000000	      0.00000000	      0.00000000	      0.00000000	      0.00000000	      0.00000000
      1.82000000	      0.00000000	      0.00000000	      0.00000000	      0.00000000	      0.00000000	      0.00000000	      0.00000000	      0.00000000	      0.00000000	    -34.38003292	    540.89153469	    -16.27449029	      1.02572623	      0.00000000	      0.20247142	     -0.00000000	      0.83420782	      0.00000000	      0.00000000	      0.00000000	      0.00000000	      0.00000000	      0.00000000	      0.00000000	      0.00000000	      0.00000000	      0.00000000
